<svg width="105" height="28" viewBox="0 0 105 28" fill="none" xmlns="http://www.w3.org/2000/svg">
<path fill-rule="evenodd" clip-rule="evenodd" d="M16.6257 24.3888C26.0145 22.6477 26.362 9.07576 21.1473 5.20262C15.9326 1.32949 9.96564 0.87777 4.68234 9.09503C-0.600957 17.3123 7.23682 26.1298 16.6257 24.3888Z" fill="white"/>
<path fill-rule="evenodd" clip-rule="evenodd" d="M44.0923 14.2293C44.5029 9.00507 37.3579 6.89315 34.5641 9.10727C31.7703 11.3214 30.6834 14.4203 34.2888 18.388C37.8943 22.3558 43.6816 19.4535 44.0923 14.2293Z" fill="#B21D81"/>
<path fill-rule="evenodd" clip-rule="evenodd" d="M67.0923 14.2293C67.5029 9.00507 60.3579 6.89315 57.5641 9.10727C54.7703 11.3214 53.6834 14.4203 57.2888 18.388C60.8943 22.3558 66.6816 19.4535 67.0923 14.2293Z" fill="#B21D81"/>
<path fill-rule="evenodd" clip-rule="evenodd" d="M91.0923 14.2293C91.5029 9.00507 84.3579 6.89315 81.5641 9.10727C78.7703 11.3214 77.6834 14.4203 81.2888 18.388C84.8943 22.3558 90.6816 19.4535 91.0923 14.2293Z" fill="#B21D81"/>
</svg>
